<svg xmlns="http://www.w3.org/2000/svg" viewBox="0 0 300 300">
  <path d="M285.72 186.06c-.165 1.215-2.445 3.585-3.54 3.78H111.075L68.85 69.72l214.26 10.845c1.38 0 2.52.9 2.61 1.26V186.06zM283.5 66.285h-.015L63.93 55.17 49.14 19.41a7.157 7.157 0 00-6.6-4.41H7.14A7.138 7.138 0 000 22.14a7.138 7.138 0 007.14 7.14h30.615l11.55 27.9 51.66 146.955H282.18c8.835 0 17.82-9.09 17.82-18.015V81.825c0-8.415-7.725-15.54-16.5-15.54zm-27.45 207.09c-13.785 0-25.02-11.22-25.02-25.02 0-13.8 11.235-25.02 25.02-25.02 13.8 0 25.02 11.22 25.02 25.02 0 13.8-11.22 25.02-25.02 25.02zm0-64.32c-21.66 0-39.3 17.625-39.3 39.3 0 21.675 17.64 39.3 39.3 39.3 21.675 0 39.315-17.625 39.315-39.3 0-21.675-17.64-39.3-39.315-39.3zm-112.725 64.32c-13.8 0-25.035-11.22-25.035-25.02 0-13.8 11.235-25.02 25.035-25.02 13.785 0 25.02 11.22 25.02 25.02 0 13.8-11.235 25.02-25.02 25.02zm0-64.32c-21.675 0-39.315 17.625-39.315 39.3 0 21.675 17.64 39.3 39.315 39.3 21.675 0 39.3-17.625 39.3-39.3 0-21.675-17.625-39.3-39.3-39.3z" fill="#18415D" fill-rule="nonzero" />
</svg>
